<?xml version="1.0" encoding="UTF-8" standalone="no"?>
<svg
   xmlns:dc="http://purl.org/dc/elements/1.1/"
   xmlns:cc="http://creativecommons.org/ns#"
   xmlns:rdf="http://www.w3.org/1999/02/22-rdf-syntax-ns#"
   xmlns:svg="http://www.w3.org/2000/svg"
   xmlns="http://www.w3.org/2000/svg"
   xmlns:sodipodi="http://sodipodi.sourceforge.net/DTD/sodipodi-0.dtd"
   xmlns:inkscape="http://www.inkscape.org/namespaces/inkscape"
   aria-labelledby="simpleicons-adobeacrobatreader-icon"
   role="img"
   viewBox="0 0 24 24"
   version="1.1"
   id="svg3739"
   sodipodi:docname="pdf.svg"
   inkscape:version="0.92.3 (2405546, 2018-03-11)">
  <metadata
     id="metadata3745">
    <rdf:RDF>
      <cc:Work
         rdf:about="">
        <dc:format>image/svg+xml</dc:format>
        <dc:type
           rdf:resource="http://purl.org/dc/dcmitype/StillImage" />
      </cc:Work>
    </rdf:RDF>
  </metadata>
  <defs
     id="defs3743" />
  <sodipodi:namedview
     pagecolor="#ffffff"
     bordercolor="#666666"
     borderopacity="1"
     objecttolerance="10"
     gridtolerance="10"
     guidetolerance="10"
     inkscape:pageopacity="0"
     inkscape:pageshadow="2"
     inkscape:window-width="1920"
     inkscape:window-height="1017"
     id="namedview3741"
     showgrid="false"
     inkscape:zoom="32"
     inkscape:cx="14.021108"
     inkscape:cy="7.0744273"
     inkscape:window-x="-8"
     inkscape:window-y="-8"
     inkscape:window-maximized="1"
     inkscape:current-layer="svg3739" />
  <title
     id="simpleicons-adobeacrobatreader-icon">Adobe Acrobat Reader icon</title>
  <path
     fill="#fff"
     d="M23.598 15.368c-.71-.76-2.164-1.197-4.224-1.197-1.1 0-2.375.11-3.76.37-.782-.77-1.562-1.67-2.307-2.72-.53-.74-.993-1.52-1.42-2.29.813-2.54 1.206-4.61 1.206-6.1 0-1.672-.603-3.416-2.34-3.416-.533 0-1.066.325-1.35.8-.783 1.408-.43 4.493.917 7.54-.503 1.52-1.035 2.973-1.7 4.605-.578 1.376-1.244 2.794-1.923 4.096C2.793 18.64.267 20.49.03 21.94c-.104.547.074 1.05.457 1.45.133.11.636.545 1.48.545 2.59 0 5.32-4.28 6.707-6.86 1.065-.36 2.13-.687 3.193-1.015 1.168-.323 2.34-.583 3.405-.765 2.735 2.504 5.146 2.9 6.358 2.9 1.492 0 2.024-.617 2.203-1.122.28-.65.07-1.37-.252-1.74l.02.04zm-1.385 1.054c-.104.544-.638.906-1.386.906-.21 0-.39-.037-.603-.072-1.36-.325-2.633-1.016-3.903-2.106 1.25-.214 2.31-.25 2.98-.25.74 0 1.38.032 1.81.144.49.106 1.27.435 1.095 1.38h.02zm-7.523-1.707c-.92.19-1.914.414-2.944.693-.816.223-1.666.474-2.52.77.463-.902.854-1.774 1.208-2.603.428-1.02.78-2.07 1.135-3.046.35.61.74 1.23 1.13 1.78.64.87 1.31 1.7 1.98 2.42v-.02zM10.04 1.23c.145-.29.43-.436.678-.436.745 0 .887.868.887 1.56 0 1.168-.354 2.942-.96 4.967-1.062-2.82-1.135-5.18-.603-6.09zM6.138 18.127C4.328 21.17 2.59 23.06 1.525 23.06c-.21 0-.387-.075-.53-.183-.214-.216-.32-.472-.248-.76.213-1.09 2.236-2.613 5.392-3.99z"
     id="path3737"
     style="fill:#ffffff" />
  <text
     xml:space="preserve"
     style="font-style:normal;font-variant:normal;font-weight:900;font-stretch:normal;font-size:5.33333349px;line-height:1.25;font-family:Merriweather;-inkscape-font-specification:'Merriweather, Heavy';font-variant-ligatures:normal;font-variant-caps:normal;font-variant-numeric:normal;font-feature-settings:normal;text-align:start;letter-spacing:0px;word-spacing:0px;writing-mode:lr-tb;text-anchor:start;fill:#ffffff;fill-opacity:1;stroke:none"
     x="16.084333"
     y="23.940332"
     id="text3749"><tspan
       sodipodi:role="line"
       id="tspan3747"
       x="16.084333"
       y="23.940332">CV</tspan></text>
</svg>
